<?xml version="1.0" encoding="UTF-8"?> <svg xmlns="http://www.w3.org/2000/svg" xmlns:xlink="http://www.w3.org/1999/xlink" version="1.1" id="Outline" x="0px" y="0px" viewBox="0 0 512 512" style="enable-background:new 0 0 512 512;" xml:space="preserve"> <path d="M499.91,104.85c-10.18-12.42-25.22-19.52-41.26-19.52H95.79l-5.46-39.32C86.7,19.8,64,0,37.51,0H10.67 C4.78,0,0,4.78,0,10.67s4.78,10.67,10.67,10.67h26.86c15.89,0,29.5,11.86,31.68,27.61l37.99,273.6 c6.57,47.19,47.47,82.79,95.08,82.79H416c5.89,0,10.67-4.78,10.67-10.67c0-5.89-4.78-10.67-10.67-10.67H202.29 c-36.91,0-68.57-27.5-73.86-64h269.65c45.61,0,85.18-32.45,94.12-77.16l18.75-93.72c3.14-15.74-0.9-31.87-11.07-44.27L499.91,104.85 z M490.05,144.94l-18.75,93.72c-6.95,34.77-37.76,60.01-73.22,60.01H125.42l-26.67-192h359.89c9.62,0,18.65,4.27,24.75,11.71 S491.91,135.51,490.05,144.94z M149.34,426.67c-23.53,0-42.67,19.14-42.67,42.67c0,23.53,19.14,42.67,42.67,42.67 S192,492.86,192,469.33C192,445.8,172.87,426.67,149.34,426.67z M149.34,490.67c-11.78,0-21.33-9.58-21.33-21.33 c0-11.75,9.56-21.33,21.33-21.33s21.33,9.58,21.33,21.33C170.67,481.09,161.11,490.67,149.34,490.67z M362.67,426.67 c-23.53,0-42.67,19.14-42.67,42.67c0,23.53,19.14,42.67,42.67,42.67s42.67-19.14,42.67-42.67 C405.34,445.8,386.2,426.67,362.67,426.67z M362.67,490.67c-11.78,0-21.33-9.58-21.33-21.33c0-11.75,9.56-21.33,21.33-21.33 S384,457.58,384,469.33C384,481.09,374.45,490.67,362.67,490.67z"></path> </svg> 