<?xml version="1.0" encoding="UTF-8"?> <svg xmlns="http://www.w3.org/2000/svg" xmlns:xlink="http://www.w3.org/1999/xlink" version="1.1" id="Layer_1" x="0px" y="0px" viewBox="0 0 600 500" style="enable-background:new 0 0 600 500;" xml:space="preserve"> <style type="text/css"> .st0{fill:url(#SVGID_1_);} .st1{fill:url(#SVGID_00000156550545652210599750000010376701599770019001_);} .st2{fill:url(#SVGID_00000158736861850589631430000007426687921689798536_);} .st3{fill:url(#SVGID_00000007408484541494967190000003923987094221798018_);} </style> <g> <linearGradient id="SVGID_1_" gradientUnits="userSpaceOnUse" x1="37.9844" y1="217.2143" x2="374.8084" y2="386.6811"> <stop offset="2.492013e-07" style="stop-color:#6968AF"></stop> <stop offset="1" style="stop-color:#7CD1E5"></stop> </linearGradient> <path class="st0" d="M261.6,387.8c-19.5,25-49.9,41.2-84.1,41.2C118.7,429,71,381.3,71,322.5S118.7,216,177.5,216 S284,263.7,284,322.5v0L321.7,219c-32.2-44.8-84.8-74-144.2-74c-40,0-76.8,13.2-106.5,35.5V0H0v322.5C0,420.5,79.5,500,177.5,500 c44.6,0,85.4-16.5,116.6-43.7C270.3,442.4,257.4,415,261.6,387.8z"></path> <g> <linearGradient id="SVGID_00000164506699515957194860000007477669801720968601_" gradientUnits="userSpaceOnUse" x1="26.2544" y1="217.1355" x2="373.6093" y2="391.9007"> <stop offset="2.492013e-07" style="stop-color:#6968AF"></stop> <stop offset="1" style="stop-color:#7CD1E5"></stop> </linearGradient> <circle style="fill:url(#SVGID_00000164506699515957194860000007477669801720968601_);" cx="401.2" cy="405.8" r="17.8"></circle> <g> <linearGradient id="SVGID_00000150813564964441980670000007858310918272154774_" gradientUnits="userSpaceOnUse" x1="73.7799" y1="122.6761" x2="421.1349" y2="297.4413"> <stop offset="2.492013e-07" style="stop-color:#6968AF"></stop> <stop offset="1" style="stop-color:#7CD1E5"></stop> </linearGradient> <path style="fill:url(#SVGID_00000150813564964441980670000007858310918272154774_);" d="M363.2,146.4l-85,233.5 c-10.1,27.6,4.2,58.2,31.8,68.3l133.4,48.6c27.6,10.1,58.2-4.2,68.3-31.8l85-233.5c10.1-27.6-4.2-58.2-31.8-68.3l-133.4-48.6 C403.9,104.5,373.3,118.8,363.2,146.4z M455.7,463.4l-133.4-48.6c-9.2-3.4-14-13.5-10.6-22.8l85-233.5c3.4-9.2,13.5-14,22.8-10.6 l133.4,48.6c9.2,3.4,14,13.5,10.6,22.8l-85,233.5C475.1,462,464.9,466.8,455.7,463.4z"></path> <linearGradient id="SVGID_00000001632920074582587420000000706455849362009770_" gradientUnits="userSpaceOnUse" x1="121.3398" y1="28.1484" x2="468.6947" y2="202.9137"> <stop offset="2.492013e-07" style="stop-color:#6968AF"></stop> <stop offset="1" style="stop-color:#7CD1E5"></stop> </linearGradient> <path style="fill:url(#SVGID_00000001632920074582587420000000706455849362009770_);" d="M496,223l-50-18.2 c-4.6-1.7-7-6.8-5.3-11.4v0c1.7-4.6,6.8-7,11.4-5.3l50,18.2c4.6,1.7,7,6.8,5.3,11.4v0C505.7,222.3,500.6,224.7,496,223z"></path> </g> </g> </g> </svg> 