<?xml version="1.0" encoding="utf-8"?>
<!-- Generator: Adobe Illustrator 25.4.1, SVG Export Plug-In . SVG Version: 6.00 Build 0)  -->
<svg version="1.1" id="Layer_1" xmlns="http://www.w3.org/2000/svg" xmlns:xlink="http://www.w3.org/1999/xlink" x="0px" y="0px"
	 viewBox="0 0 512 512" style="enable-background:new 0 0 512 512;" xml:space="preserve">
<path d="M500.7,512c-3,0-5.9-1.2-8-3.3l-139.2-137l-3.9,3.1c-38.1,30.4-86.1,47.2-135.1,47.2C96.2,422,0,327.4,0,211
	C0,94.7,96.2,0,214.5,0c57.3,0,111.2,22,151.7,61.8c40.5,39.8,62.8,92.8,62.8,149.2c0,52.2-19.8,102.4-55.6,141.4l-3.7,4
	l139.2,136.9c4.2,4.3,4.1,11.2-0.2,15.4C506.6,510.8,503.7,512,500.7,512z M214.5,22C108.7,22,22.6,106.8,22.6,211
	s86.1,189,191.9,189c105.8,0,191.9-84.8,191.9-189S320.4,22,214.5,22z"/>
</svg>
