<?xml version="1.0" encoding="UTF-8"?> <svg xmlns="http://www.w3.org/2000/svg" xmlns:xlink="http://www.w3.org/1999/xlink" version="1.1" id="Outline" x="0px" y="0px" viewBox="0 0 512 512" style="enable-background:new 0 0 512 512;" xml:space="preserve"> <path d="M512,202.67c0-0.77-29.91-135.85-29.91-135.85C473.34,27.48,439.08,0,398.78,0H113.24C72.92,0,38.68,27.48,29.93,66.82 C29.93,66.82,0,201.9,0,202.67c0,20.37,8.26,38.85,21.53,52.33c-0.04,0.34-0.19,0.64-0.19,1v160c0,52.93,43.07,96,96,96h277.33 c52.93,0,96-43.07,96-96V256c0-0.36-0.17-0.66-0.19-1C503.77,241.51,512,223.04,512,202.67z M50.75,71.45 c6.55-29.5,32.23-50.11,62.46-50.11h36.1v96c0,5.89,4.78,10.67,10.67,10.67s10.67-4.78,10.67-10.67v-96h170.67v96 c0,5.89,4.78,10.67,10.67,10.67c5.89,0,10.67-4.78,10.67-10.67v-96h36.1c30.23,0,55.94,20.61,62.49,50.11l29.4,132.35 c-0.6,28.89-24.3,52.2-53.33,52.2h-21.33c-29.4,0-53.33-23.91-53.33-53.33c0-5.89-4.78-10.67-10.67-10.67 c-5.89,0-10.67,4.78-10.67,10.67c0,29.42-23.94,53.33-53.33,53.33h-64c-29.4,0-53.33-23.91-53.33-53.33 c0-5.89-4.78-10.67-10.67-10.67s-10.67,4.78-10.67,10.67c0,29.42-23.94,53.33-53.33,53.33H74.62c-29.03,0-52.74-23.32-53.33-52.2 L50.71,71.45L50.75,71.45z M394.67,490.67H117.33c-41.17,0-74.67-33.49-74.67-74.67V269.85c9.73,4.67,20.5,7.49,32,7.49H96 c27.31,0,50.99-14.89,64-36.82c13.01,21.93,36.69,36.82,64,36.82h64c27.31,0,50.99-14.89,64-36.82c13.01,21.93,36.69,36.82,64,36.82 h21.33c11.5,0,22.27-2.84,32-7.49V416C469.33,457.17,435.84,490.67,394.67,490.67z"></path> </svg> 