<?xml version="1.0" encoding="utf-8"?>
<!-- Generator: Adobe Illustrator 25.4.1, SVG Export Plug-In . SVG Version: 6.00 Build 0)  -->
<svg version="1.1" id="Layer_1" xmlns="http://www.w3.org/2000/svg" xmlns:xlink="http://www.w3.org/1999/xlink" x="0px" y="0px"
	 viewBox="0 0 512 512" style="enable-background:new 0 0 512 512;" xml:space="preserve">
<path d="M162.9,186.7c0,22.6,2.8,40.1,8.6,53.6c2.5,5.9-0.2,12.8-6.1,15.3c-5.7,2.5-12.7-0.1-15.3-6.1c-7.1-16.4-10.5-37-10.5-62.8
	c0-81.6,34.8-116.4,116.4-116.4s116.4,34.8,116.4,116.4c0,13.6-1,26.1-3,37c-1.2,6.3-7.3,10.5-13.5,9.4c-6.3-1.1-10.5-7.2-9.4-13.5
	c1.7-9.5,2.6-20.6,2.6-32.8c0-68.7-24.4-93.1-93.1-93.1S162.9,118,162.9,186.7L162.9,186.7z M256,349.6
	c-119.7,0-174.9,44.9-184.6,150.2c-0.6,6.4,4.1,12.1,10.5,12.7c6.4,0.5,12.1-4.1,12.7-10.5c8.5-92.9,53.8-129.1,161.4-129.1
	S408.9,409,417.4,501.9c0.6,6.4,6.4,11.1,12.7,10.5c6.4-0.6,11.1-6.3,10.5-12.7C430.9,394.5,375.7,349.6,256,349.6z M69.8,198.3
	v-11.6C69.8,56.2,125.5,0.5,256,0.5s186.2,55.7,186.2,186.2c0,77.2-35.2,116.4-104.7,116.4H256c-31.3,0-46.5-15.2-46.5-46.5
	s15.2-46.5,46.5-46.5s46.5,15.2,46.5,46.5c0,9.2-1.5,16.8-4.1,23.3h39c56.3,0,81.5-28.7,81.5-93.1c0-118.8-44.1-162.9-162.9-162.9
	S93.1,67.9,93.1,186.7v11.6c0,6.4-5.2,11.6-11.6,11.6C75,209.9,69.8,204.7,69.8,198.3z M256,279.8c18.5,0,23.3-4.8,23.3-23.3
	c0-18.5-4.8-23.3-23.3-23.3s-23.3,4.8-23.3,23.3C232.7,275,237.5,279.8,256,279.8z"/>
</svg>
