<?xml version="1.0" encoding="UTF-8"?> <svg xmlns="http://www.w3.org/2000/svg" xmlns:xlink="http://www.w3.org/1999/xlink" version="1.1" id="Layer_1" x="0px" y="0px" viewBox="0 0 512 512" style="enable-background:new 0 0 512 512;" xml:space="preserve"> <path d="M395.11,311.1c-17.96-17.92-50.19-15.68-66.7,3.7l-72.39,84.75l-72.34-84.99c-16.4-19.18-48.4-21.57-66.56-3.65 C85.33,340.57,64,394.58,64,445.33v56c0,5.89,4.78,10.67,10.67,10.67c5.89,0,10.66-4.78,10.66-10.67v-56 c0-45.18,18.63-92.95,46.34-118.82c9.81-9.33,27.24-8.22,35.9,2.07l80.3,94.35c4.01,4.93,12.2,4.93,16.24,0l80.36-94.1 c8.87-10.3,26.17-11.88,36.03-2.15c27.61,25.85,46.17,73.56,46.17,118.65v56c0,5.89,4.77,10.67,10.66,10.67 c5.89,0,10.67-4.78,10.67-10.67v-56.02C448,394.69,426.75,340.76,395.11,311.1z"></path> <path d="M256,0c-70.59,0-128,57.41-128,128s57.41,128,128,128s128-57.41,128-128S326.59,0,256,0z M256,234.67 c-58.82,0-106.67-47.85-106.67-106.67S197.18,21.33,256,21.33S362.67,69.18,362.67,128S314.82,234.67,256,234.67z"></path> </svg> 